<svg width="31" height="24" viewBox="0 0 31 24" fill="none" xmlns="http://www.w3.org/2000/svg">
<path fill-rule="evenodd" clip-rule="evenodd" d="M6.54531 2.39984C6.79885 2.39994 7.00457 2.59841 7.00469 2.84359C7.00469 3.08887 6.79892 3.28803 6.54531 3.28812H5.33984C3.53242 3.2882 2.06651 4.70505 2.06641 6.45297V10.5069H3.32969C4.02733 10.5069 4.59297 9.95968 4.59297 9.285V7.6639C3.92935 7.47248 3.44531 6.87888 3.44531 6.17484C3.44568 5.31658 4.16483 4.62114 5.05234 4.62093C5.93995 4.62103 6.65979 5.31652 6.66016 6.17484C6.66016 6.87906 6.17571 7.47342 5.51172 7.66468V9.285C5.51172 10.4504 4.53472 11.3951 3.32969 11.3952H2.06641V23.5561C2.06629 23.8013 1.86065 23.9998 1.60703 23.9998C1.3536 23.9996 1.14855 23.8012 1.14844 23.5561V11.3952H0.459375C0.205683 11.3952 0 11.196 0 10.9506C0.000181421 10.7054 0.205795 10.5069 0.459375 10.5069H1.14844V6.45297C1.14854 4.21437 3.02504 2.39992 5.33984 2.39984H6.54531ZM5.05234 5.50843C4.67221 5.50864 4.36365 5.80726 4.36328 6.17484C4.36328 6.54272 4.67199 6.84104 5.05234 6.84125C5.4328 6.84115 5.74141 6.54279 5.74141 6.17484C5.74104 5.80719 5.43257 5.50853 5.05234 5.50843Z" fill="currentColor"/>
<path fill-rule="evenodd" clip-rule="evenodd" d="M5.51172 12.3389C6.71657 12.3389 7.6935 13.2839 7.69375 14.4491V15.2116C7.90266 15.1155 8.13604 15.06 8.38281 15.06C9.27055 15.0601 9.99053 15.7562 9.99062 16.6147C9.99062 16.8535 9.93308 17.0789 9.83359 17.2811C11.0314 17.2891 11.9999 18.231 12 19.3912V23.5561C11.9999 23.8013 11.7942 23.9998 11.5406 23.9998C11.2871 23.9997 11.0821 23.8012 11.082 23.5561V19.3912C11.0819 18.7167 10.5155 18.1694 9.81797 18.1694H8.38281C7.53948 18.1692 6.84914 17.5409 6.78203 16.742C6.77811 16.7187 6.775 16.6946 6.775 16.6702V14.4491C6.77475 13.7746 6.20919 13.2272 5.51172 13.2272H4.07656C3.82304 13.2271 3.61733 13.0286 3.61719 12.7834C3.61731 12.5382 3.82302 12.339 4.07656 12.3389H5.51172ZM8.38281 15.9483C8.00247 15.9484 7.69384 16.2468 7.69375 16.6147C7.69376 16.9826 8.00242 17.2809 8.38281 17.2811C8.76322 17.281 9.07187 16.9826 9.07187 16.6147C9.07178 16.2468 8.76317 15.9484 8.38281 15.9483Z" fill="currentColor"/>
<path fill-rule="evenodd" clip-rule="evenodd" d="M26.3234 12.3389C26.577 12.339 26.7827 12.5382 26.7828 12.7834C26.7827 13.0286 26.577 13.2271 26.3234 13.2272H24.8883C24.1908 13.2272 23.6253 13.7746 23.625 14.4491V16.6702C23.625 16.6946 23.6219 16.7187 23.618 16.742C23.5509 17.5409 22.8605 18.1692 22.0172 18.1694H20.582C19.8845 18.1694 19.3181 18.7167 19.318 19.3912V23.5561C19.3179 23.8012 19.1129 23.9997 18.8594 23.9998C18.6058 23.9998 18.4001 23.8013 18.4 23.5561V19.3912C18.4001 18.231 19.3686 17.2891 20.5664 17.2811C20.4669 17.0789 20.4094 16.8535 20.4094 16.6147C20.4095 15.7562 21.1294 15.0601 22.0172 15.06C22.264 15.06 22.4973 15.1155 22.7062 15.2116V14.4491C22.7065 13.2839 23.6834 12.3389 24.8883 12.3389H26.3234ZM22.0172 15.9483C21.6368 15.9484 21.3282 16.2468 21.3281 16.6147C21.3281 16.9826 21.6368 17.281 22.0172 17.2811C22.3976 17.2809 22.7062 16.9826 22.7062 16.6147C22.7062 16.2468 22.3975 15.9484 22.0172 15.9483Z" fill="currentColor"/>
<path fill-rule="evenodd" clip-rule="evenodd" d="M25.0602 2.39984C27.375 2.39992 29.2515 4.21437 29.2516 6.45297V10.5069H29.9406C30.1942 10.5069 30.3998 10.7054 30.4 10.9506C30.4 11.196 30.1943 11.3952 29.9406 11.3952H29.2516V23.5561C29.2514 23.8012 29.0464 23.9996 28.793 23.9998C28.5393 23.9998 28.3337 23.8013 28.3336 23.5561V11.3952H27.0703C25.8653 11.3951 24.8883 10.4504 24.8883 9.285V7.66468C24.2243 7.47342 23.7398 6.87906 23.7398 6.17484C23.7402 5.31652 24.46 4.62103 25.3477 4.62093C26.2352 4.62114 26.9543 5.31658 26.9547 6.17484C26.9547 6.87888 26.4706 7.47248 25.807 7.6639V9.285C25.807 9.95968 26.3727 10.5069 27.0703 10.5069H28.3336V6.45297C28.3335 4.70505 26.8676 3.2882 25.0602 3.28812H23.8547C23.6011 3.28803 23.3953 3.08887 23.3953 2.84359C23.3954 2.59841 23.6012 2.39994 23.8547 2.39984H25.0602ZM25.3477 5.50843C24.9674 5.50853 24.659 5.80719 24.6586 6.17484C24.6586 6.54279 24.9672 6.84115 25.3477 6.84125C25.728 6.84104 26.0367 6.54272 26.0367 6.17484C26.0363 5.80726 25.7278 5.50864 25.3477 5.50843Z" fill="currentColor"/>
<path d="M4.76562 21.9452C5.0825 21.9453 5.33966 22.1942 5.33984 22.5006C5.33979 22.8072 5.08258 23.0559 4.76562 23.0561C4.44857 23.0561 4.19146 22.8072 4.19141 22.5006C4.19159 22.1941 4.44865 21.9452 4.76562 21.9452Z" fill="currentColor"/>
<path d="M25.6344 21.9452C25.9513 21.9452 26.2084 22.1941 26.2086 22.5006C26.2085 22.8072 25.9514 23.0561 25.6344 23.0561C25.3174 23.0559 25.0602 22.8072 25.0602 22.5006C25.0603 22.1942 25.3175 21.9453 25.6344 21.9452Z" fill="currentColor"/>
<path fill-rule="evenodd" clip-rule="evenodd" d="M4.59922 19.3358C5.171 19.3359 5.72025 19.5529 6.12812 19.9405L6.84922 20.6256C7.07693 20.035 7.66374 19.6141 8.35391 19.6139C9.2416 19.614 9.96151 20.3094 9.96172 21.1678C9.96172 22.0264 9.24173 22.7232 8.35391 22.7233C7.79733 22.7232 7.30715 22.4484 7.01875 22.0327L5.48359 20.5748C5.24752 20.3506 4.93013 20.2242 4.59922 20.2241H4.07656C3.82299 20.2241 3.61738 20.0255 3.61719 19.7803C3.61719 19.535 3.82287 19.3358 4.07656 19.3358H4.59922ZM8.35391 20.5014C7.97367 20.5016 7.66505 20.8001 7.66484 21.1678C7.66484 21.2796 7.69421 21.3847 7.74453 21.4772C7.77661 21.5107 7.80092 21.5487 7.82031 21.5881C7.94666 21.738 8.13849 21.8341 8.35391 21.8342C8.73434 21.8341 9.04297 21.5357 9.04297 21.1678C9.04276 20.8 8.73421 20.5015 8.35391 20.5014Z" fill="currentColor"/>
<path fill-rule="evenodd" clip-rule="evenodd" d="M26.3234 19.3358C26.5771 19.3358 26.7828 19.535 26.7828 19.7803C26.7826 20.0255 26.577 20.2241 26.3234 20.2241H25.8008C25.4699 20.2242 25.1525 20.3506 24.9164 20.5748L23.3812 22.0327C23.0928 22.4484 22.6027 22.7232 22.0461 22.7233C21.1583 22.7232 20.4383 22.0264 20.4383 21.1678C20.4385 20.3094 21.1584 19.614 22.0461 19.6139C22.7363 19.6141 23.3231 20.035 23.5508 20.6256L24.2719 19.9405C24.6797 19.5529 25.229 19.3359 25.8008 19.3358H26.3234ZM22.0461 20.5014C21.6658 20.5015 21.3572 20.8 21.357 21.1678C21.357 21.5357 21.6657 21.8341 22.0461 21.8342C22.2615 21.8341 22.4533 21.738 22.5797 21.5881C22.5991 21.5487 22.6234 21.5107 22.6555 21.4772C22.7058 21.3847 22.7352 21.2796 22.7352 21.1678C22.7349 20.8001 22.4263 20.5016 22.0461 20.5014Z" fill="currentColor"/>
<path d="M4.59297 15.0045C5.13206 15.0045 5.56875 15.4277 5.56875 15.9491C5.56844 16.4701 5.13186 16.8928 4.59297 16.8928C4.05418 16.8927 3.6175 16.4701 3.61719 15.9491C3.61719 15.4278 4.05399 15.0047 4.59297 15.0045Z" fill="currentColor"/>
<path d="M25.807 15.0045C26.346 15.0047 26.7828 15.4278 26.7828 15.9491C26.7825 16.4701 26.3458 16.8927 25.807 16.8928C25.2681 16.8928 24.8316 16.4701 24.8312 15.9491C24.8312 15.4277 25.2679 15.0045 25.807 15.0045Z" fill="currentColor"/>
<path d="M15.2 22.4C15.6414 22.4 15.9996 22.7577 16 23.1992C16 23.6411 15.6417 24 15.2 24C14.7584 24 14.4 23.6411 14.4 23.1992C14.4004 22.7577 14.7586 22.4 15.2 22.4Z" fill="#FF7700"/>
<path fill-rule="evenodd" clip-rule="evenodd" d="M15.2 0C19.1764 0 22.4 3.22355 22.4 7.2C22.4 9.07614 21.5168 10.8236 20.568 12.4422L15.8898 20.4227C15.5807 20.9496 14.8193 20.9496 14.5102 20.4227L9.83203 12.4422C8.88323 10.8236 8 9.07614 8 7.2C8 3.22355 11.2235 0 15.2 0ZM15.2 4C13.4327 4 12 5.43269 12 7.2C12 8.96731 13.4327 10.4 15.2 10.4C16.9673 10.4 18.4 8.96731 18.4 7.2C18.4 5.43269 16.9673 4 15.2 4Z" fill="#FF7700"/>
</svg>
