<svg width="128" height="20" viewBox="0 0 128 20" fill="none" xmlns="http://www.w3.org/2000/svg">
<path d="M124.307 16.0001V5.12006H126.099V16.0001H124.307Z" fill="currentColor"/>
<path d="M121.148 16.0001L120.22 13.5521H115.26L114.332 16.0001H112.54L116.732 5.12006H118.828L123.02 16.0001H121.148ZM117.42 7.90406L115.804 12.1441H119.676L118.06 7.90406L117.74 6.84806L117.42 7.90406Z" fill="currentColor"/>
<path d="M103.972 9.71193C103.972 11.8879 109.428 10.0639 109.428 13.5359C109.428 15.1519 107.972 16.2079 105.908 16.2079C103.844 16.2079 102.388 15.2479 102.068 13.2159H103.78C103.956 14.2879 104.756 14.8799 105.956 14.8799C107.108 14.8799 107.716 14.3679 107.716 13.6479C107.716 11.5199 102.34 13.3119 102.34 9.80793C102.34 8.47993 103.38 7.24792 105.54 7.24792C107.444 7.24792 108.852 8.12793 109.124 10.2559H107.412C107.22 9.05593 106.548 8.60793 105.46 8.60793C104.516 8.60793 103.972 9.07193 103.972 9.71193Z" fill="currentColor"/>
<path d="M97.9337 13.4562V8.80015H96.7817V7.47215H97.9337V5.50415H99.6457V7.47215H101.486V8.80015H99.6457V13.3602C99.6457 14.3362 99.9177 14.8002 101.118 14.8002H101.454V16.0482C101.262 16.1442 100.862 16.2082 100.382 16.2082C98.7177 16.2082 97.9337 15.2962 97.9337 13.4562Z" fill="currentColor"/>
<path d="M88.6196 16.0001V4.4801H90.3316V8.6081C90.9076 7.6961 91.8036 7.2481 92.9076 7.2481C94.6836 7.2481 95.7876 8.2881 95.7876 10.3041V16.0001H94.0916V10.6561C94.0916 9.4241 93.5476 8.6721 92.3796 8.6721C91.0996 8.6721 90.3316 9.8081 90.3316 10.9921V16.0001H88.6196Z" fill="currentColor"/>
<path d="M82.5393 16.0479C80.3633 16.0479 79.0513 14.3839 79.0513 11.6639C79.0513 8.81593 80.3953 7.24792 82.5393 7.24792C83.6273 7.24792 84.4433 7.63193 84.9873 8.36793V7.47192H86.6993V16.2719C86.6993 18.6079 85.1473 19.7439 83.0993 19.7439C81.0513 19.7439 79.5793 18.7839 79.2753 16.7999H80.9873C81.1473 17.8239 81.9633 18.3679 83.0833 18.3679C84.2193 18.3679 84.9873 17.7759 84.9873 16.3039V14.8639C84.4113 15.6479 83.5793 16.0479 82.5393 16.0479ZM82.8913 14.6079C84.2513 14.6079 84.9873 13.5679 84.9873 11.6479C84.9873 9.77593 84.2193 8.68793 82.8913 8.68793C81.5313 8.68793 80.7953 9.72793 80.7953 11.6639C80.7953 13.5359 81.5473 14.6079 82.8913 14.6079Z" fill="currentColor"/>
<path d="M75.8462 6.4161V4.4801H77.5582V6.4161H75.8462ZM75.8462 16.0001V7.4721H77.5582V16.0001H75.8462Z" fill="currentColor"/>
<path d="M68.9914 9.71193C68.9914 11.8879 74.4474 10.0639 74.4474 13.5359C74.4474 15.1519 72.9914 16.2079 70.9274 16.2079C68.8634 16.2079 67.4074 15.2479 67.0874 13.2159H68.7994C68.9754 14.2879 69.7754 14.8799 70.9754 14.8799C72.1274 14.8799 72.7354 14.3679 72.7354 13.6479C72.7354 11.5199 67.3594 13.3119 67.3594 9.80793C67.3594 8.47993 68.3994 7.24792 70.5594 7.24792C72.4634 7.24792 73.8714 8.12793 74.1434 10.2559H72.4314C72.2394 9.05593 71.5674 8.60793 70.4794 8.60793C69.5354 8.60793 68.9914 9.07193 68.9914 9.71193Z" fill="currentColor"/>
<path d="M58.5415 15.9999V7.47192H60.2535V8.60793C60.8295 7.69592 61.7255 7.24792 62.8295 7.24792C64.6055 7.24792 65.7095 8.28793 65.7095 10.3039V15.9999H64.0135V10.6559C64.0135 9.42393 63.4695 8.67192 62.3015 8.67192C61.0215 8.67192 60.2535 9.80793 60.2535 10.9919V15.9999H58.5415Z" fill="currentColor"/>
<path d="M54.7041 16.0001V5.12006H56.4961V16.0001H54.7041Z" fill="currentColor"/>
<path d="M46.9171 13.4562V8.80015H45.7651V7.47215H46.9171V5.50415H48.6291V7.47215H50.4691V8.80015H48.6291V13.3602C48.6291 14.3362 48.9011 14.8002 50.1011 14.8002H50.4371V16.0482C50.2451 16.1442 49.8451 16.2082 49.3651 16.2082C47.7011 16.2082 46.9171 15.2962 46.9171 13.4562Z" fill="currentColor"/>
<path d="M45.2023 13.2159C44.7383 15.1999 43.2663 16.2079 41.2663 16.2079C38.7543 16.2079 37.2183 14.5279 37.2183 11.7439C37.2183 8.84792 38.7543 7.24792 41.1863 7.24792C43.6503 7.24792 45.1383 8.91193 45.1383 11.6479V12.0639H38.9623C39.0583 13.8079 39.8743 14.7839 41.2663 14.7839C42.3543 14.7839 43.1223 14.2719 43.4103 13.2159H45.2023ZM41.1863 8.67192C39.9543 8.67192 39.2183 9.45593 39.0103 10.8959H43.3623C43.1543 9.45593 42.4023 8.67192 41.1863 8.67192Z" fill="currentColor"/>
<path d="M29.8569 16.0001V4.4801H31.5689V11.0881L34.9609 7.4721H37.0089L33.3289 11.2641L37.2329 16.0001H35.1049L31.5689 11.7441V16.0001H29.8569Z" fill="currentColor"/>
<path d="M23.8921 15.9999V7.47192H25.6041V8.73593C26.1641 7.71193 27.0441 7.24792 28.0361 7.24792C28.3721 7.24792 28.6921 7.32792 28.8521 7.47192V8.97593C28.5961 8.89593 28.2921 8.86393 27.9401 8.86393C26.3081 8.86393 25.6041 9.85593 25.6041 11.3439V15.9999H23.8921Z" fill="currentColor"/>
<path d="M16.4487 10.2559H14.7367C15.0087 8.36793 16.3047 7.24792 18.4327 7.24792C20.7527 7.24792 21.9047 8.60792 21.9047 10.5919V13.9199C21.9047 14.9439 22.0007 15.5359 22.1927 15.9999H20.4007C20.2727 15.6799 20.2247 15.2319 20.2087 14.7519C19.4887 15.7599 18.3847 16.2079 17.3607 16.2079C15.6327 16.2079 14.4487 15.3919 14.4487 13.7599C14.4487 12.5919 15.0887 11.7279 16.3687 11.2959C17.5047 10.9119 18.6567 10.8159 20.1927 10.7999V10.6079C20.1927 9.35993 19.6167 8.68793 18.3047 8.68793C17.2007 8.68793 16.6087 9.29593 16.4487 10.2559ZM16.1767 13.6959C16.1767 14.4159 16.7687 14.8639 17.6807 14.8639C19.1047 14.8639 20.1927 13.7279 20.1927 12.3519V11.9679C16.9127 11.9999 16.1767 12.7199 16.1767 13.6959Z" fill="currentColor"/>
<path d="M1.16797 16.0001V5.12006H3.58397L6.65597 12.6561L7.02397 13.8081L7.39197 12.6561L10.432 5.12006H12.784V16.0001H10.992L11.04 7.18406L10.256 9.52006L7.61597 16.0001H6.33597L3.67997 9.50406L2.91197 7.23206L2.95997 16.0001H1.16797Z" fill="currentColor"/>
</svg>
